<svg width="172" height="49" viewBox="0 0 172 49" fill="none" xmlns="http://www.w3.org/2000/svg">
<path d="M0.910323 48V1.45454H10.7512V39.8864H30.7058V48H0.910323ZM76.2631 24.7273C76.2631 29.803 75.3009 34.1212 73.3767 37.6818C71.4676 41.2424 68.8615 43.9621 65.5585 45.8409C62.2706 47.7045 58.5737 48.6364 54.4676 48.6364C50.3312 48.6364 46.6191 47.697 43.3312 45.8182C40.0434 43.9394 37.4449 41.2197 35.5358 37.6591C33.6267 34.0985 32.6721 29.7879 32.6721 24.7273C32.6721 19.6515 33.6267 15.3333 35.5358 11.7727C37.4449 8.21212 40.0434 5.5 43.3312 3.63636C46.6191 1.75757 50.3312 0.81818 54.4676 0.81818C58.5737 0.81818 62.2706 1.75757 65.5585 3.63636C68.8615 5.5 71.4676 8.21212 73.3767 11.7727C75.3009 15.3333 76.2631 19.6515 76.2631 24.7273ZM66.2858 24.7273C66.2858 21.4394 65.7934 18.6667 64.8085 16.4091C63.8388 14.1515 62.4676 12.4394 60.6949 11.2727C58.9221 10.1061 56.8464 9.52273 54.4676 9.52273C52.0888 9.52273 50.0131 10.1061 48.2403 11.2727C46.4676 12.4394 45.0888 14.1515 44.104 16.4091C43.1343 18.6667 42.6494 21.4394 42.6494 24.7273C42.6494 28.0152 43.1343 30.7879 44.104 33.0455C45.0888 35.303 46.4676 37.0152 48.2403 38.1818C50.0131 39.3485 52.0888 39.9318 54.4676 39.9318C56.8464 39.9318 58.9221 39.3485 60.6949 38.1818C62.4676 37.0152 63.8388 35.303 64.8085 33.0455C65.7934 30.7879 66.2858 28.0152 66.2858 24.7273ZM112.496 16.5C112.178 15.3939 111.731 14.4167 111.156 13.5682C110.58 12.7045 109.875 11.9773 109.042 11.3864C108.224 10.7803 107.284 10.3182 106.224 10C105.178 9.68182 104.019 9.52273 102.746 9.52273C100.368 9.52273 98.2768 10.1136 96.4737 11.2955C94.6859 12.4773 93.2919 14.197 92.2919 16.4545C91.2919 18.697 90.7919 21.4394 90.7919 24.6818C90.7919 27.9242 91.2843 30.6818 92.2692 32.9545C93.254 35.2273 94.648 36.9621 96.451 38.1591C98.254 39.3409 100.383 39.9318 102.837 39.9318C105.065 39.9318 106.966 39.5379 108.542 38.75C110.133 37.947 111.345 36.8182 112.178 35.3636C113.027 33.9091 113.451 32.1894 113.451 30.2045L115.451 30.5H103.451V23.0909H122.928V28.9545C122.928 33.0455 122.065 36.5606 120.337 39.5C118.61 42.4242 116.231 44.6818 113.201 46.2727C110.171 47.8485 106.701 48.6364 102.792 48.6364C98.4283 48.6364 94.5949 47.6742 91.2919 45.75C87.9889 43.8106 85.4131 41.0606 83.5646 37.5C81.7313 33.9242 80.8146 29.6818 80.8146 24.7727C80.8146 21 81.3601 17.6364 82.451 14.6818C83.5571 11.7121 85.1025 9.19697 87.0874 7.13636C89.0722 5.07576 91.3828 3.50757 94.0192 2.43182C96.6556 1.35606 99.5116 0.81818 102.587 0.81818C105.224 0.81818 107.678 1.20454 109.951 1.97727C112.224 2.73485 114.239 3.81061 115.996 5.20454C117.769 6.59848 119.216 8.25757 120.337 10.1818C121.459 12.0909 122.178 14.197 122.496 16.5H112.496ZM171.173 24.7273C171.173 29.803 170.211 34.1212 168.287 37.6818C166.378 41.2424 163.772 43.9621 160.469 45.8409C157.181 47.7045 153.484 48.6364 149.378 48.6364C145.241 48.6364 141.529 47.697 138.241 45.8182C134.953 43.9394 132.355 41.2197 130.446 37.6591C128.537 34.0985 127.582 29.7879 127.582 24.7273C127.582 19.6515 128.537 15.3333 130.446 11.7727C132.355 8.21212 134.953 5.5 138.241 3.63636C141.529 1.75757 145.241 0.81818 149.378 0.81818C153.484 0.81818 157.181 1.75757 160.469 3.63636C163.772 5.5 166.378 8.21212 168.287 11.7727C170.211 15.3333 171.173 19.6515 171.173 24.7273ZM161.196 24.7273C161.196 21.4394 160.703 18.6667 159.719 16.4091C158.749 14.1515 157.378 12.4394 155.605 11.2727C153.832 10.1061 151.756 9.52273 149.378 9.52273C146.999 9.52273 144.923 10.1061 143.15 11.2727C141.378 12.4394 139.999 14.1515 139.014 16.4091C138.044 18.6667 137.559 21.4394 137.559 24.7273C137.559 28.0152 138.044 30.7879 139.014 33.0455C139.999 35.303 141.378 37.0152 143.15 38.1818C144.923 39.3485 146.999 39.9318 149.378 39.9318C151.756 39.9318 153.832 39.3485 155.605 38.1818C157.378 37.0152 158.749 35.303 159.719 33.0455C160.703 30.7879 161.196 28.0152 161.196 24.7273Z" fill="white"/>
</svg>
