<svg width="487" height="221" viewBox="0 0 487 221" xmlns="http://www.w3.org/2000/svg">
	<defs>
		<style>
			.cls-1, .cls-3 {
				fill:#fff;
			}
			.cls-2 {
				fill:#7965ed;
			}
			.cls-3 {
				fill-rule:evenodd;
			}
		</style>
	</defs>
	<title>GitiFit</title>
	<path class="cls-1" d="M213.51,120.81c-11.46,0-19.27,8.82-19.27,24.42s7.51,24.58,19.41,24.58c10.55,0,16.89-5.9,17.11-15.2H214.64V142.67H246v9.45c0,19.74-13.52,31.71-32.45,31.71-21.13,0-35.41-14.72-35.41-38.45,0-24.32,15.27-38.6,35.08-38.6,17,0,30,10.44,32.08,25.27H229.22C227.2,125,221.67,120.81,213.51,120.81Z"/>
	<path class="cls-1" d="M260.55,111.4c0-4.33,3.81-7.88,8.43-7.88s8.46,3.55,8.46,7.88-3.81,7.91-8.46,7.91A8.22,8.22,0,0,1,260.55,111.4Zm.59,15.16h15.6v56.25h-15.6Z"/>
	<path class="cls-1" d="M319.11,138.28H308.52v27.24c0,4.32,2.16,5.49,5.28,5.49a21.09,21.09,0,0,0,3.88-.51l2.45,11.61a30.49,30.49,0,0,1-8.46,1.47c-11.31.47-18.82-5-18.75-16V138.28h-7.69V126.56h7.69V113.08h15.6v13.48h10.59Z"/>
	<path class="cls-1" d="M330.71,107.81h49.66v13.07h-33.8v17.87h30.5v13.08h-30.5v31H330.71Z"/>
	<path class="cls-1" d="M390.14,111.4c0-4.33,3.8-7.88,8.42-7.88s8.46,3.55,8.46,7.88-3.81,7.91-8.46,7.91A8.21,8.21,0,0,1,390.14,111.4Zm.58,15.16h15.6v56.25h-15.6Z"/>
	<path class="cls-1" d="M448.69,138.28H438.11v27.24c0,4.32,2.16,5.49,5.27,5.49a21.09,21.09,0,0,0,3.88-.51l2.45,11.61a30.49,30.49,0,0,1-8.46,1.47c-11.31.47-18.82-5-18.75-16V138.28h-7.69V126.56h7.69V113.08h15.61v13.48h10.58Z"/>
	<path class="cls-2" d="M134.86,90.43l13.22-24.81.2-.67c3.09-10,.65-16.32-1.93-19.89C140.79,37.38,131,37,129.85,37h-.07l-65.7.14-.54.08c-10.15,1.53-14.71,6.51-16.75,10.42-4.68,9,0,19,.59,20.15L59.31,89.16a59.19,59.19,0,0,0-3.18,89.65,20.89,20.89,0,0,0,7.43,4,21.64,21.64,0,0,0,6.1.89l54.26-.06a30.33,30.33,0,0,0,7.76-1.83,24,24,0,0,0,6.63-4.78,59.22,59.22,0,0,0-3.45-86.64Zm-63-9L60.54,61.14c-.65-1.46-1.64-4.92-.68-6.73.62-1.15,2.56-2.07,5.37-2.56l64.42-.14c.82,0,3.72.54,4.77,2,.8,1.1.79,3.37,0,6.27L122.51,82.28a59.06,59.06,0,0,0-50.63-.83Z"/>
	<path class="cls-3" d="M130.81,131.52l-13.47-13.46A4.49,4.49,0,0,0,111,124.4l10.29,10.32L111,145a4.48,4.48,0,0,0,6.35,6.33h0l13.47-13.45A4.47,4.47,0,0,0,130.81,131.52ZM81.64,118.06a4.48,4.48,0,0,0-6.34,0L61.82,131.52a4.48,4.48,0,0,0,0,6.34L75.3,151.3A4.48,4.48,0,1,0,81.64,145L71.35,134.72,81.64,124.4A4.47,4.47,0,0,0,81.64,118.06Zm22.85-12.21a4.52,4.52,0,0,0-5.77,2.7L85.44,157.78a4.53,4.53,0,0,0,8.48,3.1l13.27-49.23a4.52,4.52,0,0,0-2.69-5.8Z"/>
</svg>
