<svg width="36" height="36" viewBox="0 0 36 36" xmlns="http://www.w3.org/2000/svg">
	<defs>
		<style>
			.cls-1 {
				fill:#7965ed;
			}
			.cls-2 {
				fill:#fff;
				fill-rule:evenodd;
			}
		</style>
	</defs>
	<title>GitFit</title>
	<path class="cls-1" d="M25.73,14l2.65-5,0-.14a4.28,4.28,0,0,0-.39-4,4.37,4.37,0,0,0-3.31-1.62h0l-13.18,0-.1,0A4.21,4.21,0,0,0,8.07,5.42a4.76,4.76,0,0,0,.12,4l2.39,4.29a11.86,11.86,0,0,0-.64,18,4.48,4.48,0,0,0,1.49.81,4.31,4.31,0,0,0,1.22.17H23.53a6.09,6.09,0,0,0,1.56-.36,5.13,5.13,0,0,0,1.33-1A11.89,11.89,0,0,0,25.73,14ZM13.1,12.2,10.82,8.13a2,2,0,0,1-.13-1.35c.12-.23.51-.41,1.08-.51l12.91,0a1.51,1.51,0,0,1,1,.4,1.61,1.61,0,0,1,0,1.26l-2.38,4.47a11.5,11.5,0,0,0-1.14-.49A11.83,11.83,0,0,0,13.1,12.2Z"/>
	<path class="cls-2" d="M24.92,22.24l-2.7-2.7a.91.91,0,0,0-1.28,0,.92.92,0,0,0,0,1.24L23,22.88l-2.07,2.06a.9.9,0,0,0,0,1.27.91.91,0,0,0,1.28,0h0l2.7-2.7A.9.9,0,0,0,24.92,22.24Zm-9.86-2.7a.9.9,0,0,0-1.27,0l-2.71,2.7a.91.91,0,0,0,0,1.28l2.71,2.69a.9.9,0,1,0,1.27-1.27L13,22.88l2.07-2.06A.91.91,0,0,0,15.06,19.54Zm4.58-2.44a.9.9,0,0,0-1.16.54l-2.66,9.87a.91.91,0,0,0,1.7.62l2.66-9.87a.9.9,0,0,0-.54-1.16Z"/>
</svg>
