<svg width="18" height="18" viewBox="0 0 18 18" fill="currentColor" xmlns="http://www.w3.org/2000/svg">
<path d="M4.83329 4.16659V1.66659C4.83329 1.20635 5.20639 0.833252 5.66663 0.833252H12.3333C12.7935 0.833252 13.1666 1.20635 13.1666 1.66659V4.16659H16.5C16.9602 4.16659 17.3333 4.53969 17.3333 4.99992V16.6666C17.3333 17.1268 16.9602 17.4999 16.5 17.4999H1.49996C1.03973 17.4999 0.666626 17.1268 0.666626 16.6666V4.99992C0.666626 4.53969 1.03973 4.16659 1.49996 4.16659H4.83329ZM2.33329 13.3333V15.8333H15.6666V13.3333H2.33329ZM2.33329 11.6666H15.6666V5.83325H2.33329V11.6666ZM6.49996 2.49992V4.16659H11.5V2.49992H6.49996ZM8.16663 9.16658H9.83329V10.8333H8.16663V9.16658Z" fill="currentColor"/>
</svg>
