<svg width="20" height="20" viewBox="0 0 20 20" fill="currentColor" xmlns="http://www.w3.org/2000/svg">
<path d="M7.49996 0.833496V2.50016H12.5V0.833496H14.1666V2.50016H17.5C17.9602 2.50016 18.3333 2.87326 18.3333 3.3335V16.6668C18.3333 17.1271 17.9602 17.5002 17.5 17.5002H2.49996C2.03973 17.5002 1.66663 17.1271 1.66663 16.6668V3.3335C1.66663 2.87326 2.03973 2.50016 2.49996 2.50016H5.83329V0.833496H7.49996ZM16.6666 9.16683H3.33329V15.8335H16.6666V9.16683ZM5.83329 4.16683H3.33329V7.50016H16.6666V4.16683H14.1666V5.8335H12.5V4.16683H7.49996V5.8335H5.83329V4.16683Z" fill="currentColor"/>
</svg>
