<svg width="15" height="15" viewBox="0 0 15 15" fill="none" xmlns="http://www.w3.org/2000/svg">
<path d="M7.5 13.75C4.04813 13.75 1.25 10.9519 1.25 7.5C1.25 4.04813 4.04813 1.25 7.5 1.25C10.9519 1.25 13.75 4.04813 13.75 7.5C13.75 10.9519 10.9519 13.75 7.5 13.75ZM7.5 12.5C8.82608 12.5 10.0979 11.9732 11.0355 11.0355C11.9732 10.0979 12.5 8.82608 12.5 7.5C12.5 6.17392 11.9732 4.90215 11.0355 3.96447C10.0979 3.02678 8.82608 2.5 7.5 2.5C6.17392 2.5 4.90215 3.02678 3.96447 3.96447C3.02678 4.90215 2.5 6.17392 2.5 7.5C2.5 8.82608 3.02678 10.0979 3.96447 11.0355C4.90215 11.9732 6.17392 12.5 7.5 12.5ZM6.875 9.375H8.125V10.625H6.875V9.375ZM8.125 8.34687V8.75H6.875V7.8125C6.875 7.64674 6.94085 7.48777 7.05806 7.37056C7.17527 7.25335 7.33424 7.1875 7.5 7.1875C7.67755 7.18749 7.85144 7.13706 8.00145 7.04208C8.15146 6.9471 8.27142 6.81148 8.34736 6.65099C8.4233 6.4905 8.45211 6.31175 8.43043 6.13553C8.40875 5.95931 8.33747 5.79287 8.2249 5.65557C8.11232 5.51827 7.96307 5.41577 7.79451 5.35998C7.62596 5.30419 7.44502 5.29742 7.27277 5.34044C7.10051 5.38346 6.94401 5.47452 6.82148 5.60301C6.69895 5.7315 6.61542 5.89215 6.58063 6.06625L5.35438 5.82062C5.4304 5.44068 5.60594 5.08773 5.86308 4.79787C6.12021 4.508 6.4497 4.29161 6.81787 4.17083C7.18604 4.05004 7.57968 4.02918 7.95855 4.11038C8.33742 4.19159 8.68794 4.37195 8.97426 4.63302C9.26059 4.89408 9.47245 5.2265 9.58819 5.59629C9.70394 5.96608 9.71942 6.35997 9.63304 6.73769C9.54666 7.11542 9.36153 7.46344 9.09658 7.74616C8.83162 8.02889 8.49633 8.23619 8.125 8.34687Z" fill="currentColor"/>
</svg>
