<svg width="20" height="21" viewBox="0 0 20 21" fill="currentColor" xmlns="http://www.w3.org/2000/svg">
<path d="M3.75 9.25C3.0625 9.25 2.5 9.8125 2.5 10.5C2.5 11.1875 3.0625 11.75 3.75 11.75C4.4375 11.75 5 11.1875 5 10.5C5 9.8125 4.4375 9.25 3.75 9.25ZM16.25 9.25C15.5625 9.25 15 9.8125 15 10.5C15 11.1875 15.5625 11.75 16.25 11.75C16.9375 11.75 17.5 11.1875 17.5 10.5C17.5 9.8125 16.9375 9.25 16.25 9.25ZM10 9.25C9.3125 9.25 8.75 9.8125 8.75 10.5C8.75 11.1875 9.3125 11.75 10 11.75C10.6875 11.75 11.25 11.1875 11.25 10.5C11.25 9.8125 10.6875 9.25 10 9.25Z" fill="currentColor"/>
</svg>
