<svg width="20" height="16" viewBox="0 0 20 16" fill="currentColor" xmlns="http://www.w3.org/2000/svg">
<path d="M10.0002 0.5C14.4936 0.5 18.232 3.73313 19.0157 8C18.232 12.2668 14.4936 15.5 10.0002 15.5C5.50675 15.5 1.76844 12.2668 0.98468 8C1.76844 3.73313 5.50675 0.5 10.0002 0.5ZM10.0002 13.8333C13.5299 13.8333 16.5502 11.3767 17.3147 8C16.5502 4.62336 13.5299 2.16667 10.0002 2.16667C6.47048 2.16667 3.45016 4.62336 2.68563 8C3.45016 11.3767 6.47048 13.8333 10.0002 13.8333ZM10.0002 11.75C7.92913 11.75 6.2502 10.0711 6.2502 8C6.2502 5.92893 7.92913 4.25 10.0002 4.25C12.0712 4.25 13.7502 5.92893 13.7502 8C13.7502 10.0711 12.0712 11.75 10.0002 11.75ZM10.0002 10.0833C11.1508 10.0833 12.0836 9.15058 12.0836 8C12.0836 6.84942 11.1508 5.91667 10.0002 5.91667C8.84965 5.91667 7.91686 6.84942 7.91686 8C7.91686 9.15058 8.84965 10.0833 10.0002 10.0833Z" fill="currentColor"/>
</svg>
