<svg width="20" height="20" viewBox="0 0 20 20" fill="currentColor" xmlns="http://www.w3.org/2000/svg">
<path d="M5.9209 7.32492C6.20983 8.38625 7.18044 9.16667 8.33333 9.16667H11.6667C13.7252 9.16667 15.4352 10.6596 15.7728 12.6217C16.7753 12.9472 17.5 13.889 17.5 15C17.5 16.3807 16.3807 17.5 15 17.5C13.6192 17.5 12.5 16.3807 12.5 15C12.5 13.9445 13.1541 13.0417 14.0791 12.6751C13.7902 11.6137 12.8196 10.8333 11.6667 10.8333H8.33333C7.39532 10.8333 6.52972 10.5234 5.83333 10.0003V12.6423C6.80433 12.9854 7.5 13.9115 7.5 15C7.5 16.3807 6.38071 17.5 5 17.5C3.61929 17.5 2.5 16.3807 2.5 15C2.5 13.9115 3.19568 12.9854 4.16667 12.6423V7.35774C3.19568 7.01455 2.5 6.08852 2.5 5C2.5 3.61929 3.61929 2.5 5 2.5C6.38071 2.5 7.5 3.61929 7.5 5C7.5 6.05551 6.84588 6.95823 5.9209 7.32492ZM5 5.83333C5.46023 5.83333 5.83333 5.46023 5.83333 5C5.83333 4.53977 5.46023 4.16667 5 4.16667C4.53977 4.16667 4.16667 4.53977 4.16667 5C4.16667 5.46023 4.53977 5.83333 5 5.83333ZM5 15.8333C5.46023 15.8333 5.83333 15.4602 5.83333 15C5.83333 14.5398 5.46023 14.1667 5 14.1667C4.53977 14.1667 4.16667 14.5398 4.16667 15C4.16667 15.4602 4.53977 15.8333 5 15.8333ZM15 15.8333C15.4602 15.8333 15.8333 15.4602 15.8333 15C15.8333 14.5398 15.4602 14.1667 15 14.1667C14.5398 14.1667 14.1667 14.5398 14.1667 15C14.1667 15.4602 14.5398 15.8333 15 15.8333Z" fill="currentColor"/>
</svg>
