<svg width="20" height="20" viewBox="0 0 20 20" fill="currentColor" xmlns="http://www.w3.org/2000/svg">
<path d="M5 4.16667C4.53977 4.16667 4.16667 4.53977 4.16667 5C4.16667 5.46023 4.53977 5.83333 5 5.83333C5.46023 5.83333 5.83333 5.46023 5.83333 5C5.83333 4.53977 5.46023 4.16667 5 4.16667ZM2.5 5C2.5 3.61929 3.61929 2.5 5 2.5C6.38071 2.5 7.5 3.61929 7.5 5C7.5 6.08852 6.80433 7.01455 5.83333 7.35774V7.5C5.83333 8.4205 6.57952 9.16667 7.5 9.16667H12.5C13.4205 9.16667 14.1667 8.4205 14.1667 7.5V7.35774C13.1957 7.01455 12.5 6.08852 12.5 5C12.5 3.61929 13.6192 2.5 15 2.5C16.3807 2.5 17.5 3.61929 17.5 5C17.5 6.08852 16.8043 7.01455 15.8333 7.35774V7.5C15.8333 9.34092 14.3409 10.8333 12.5 10.8333H10.8333V12.6423C11.8043 12.9854 12.5 13.9115 12.5 15C12.5 16.3807 11.3807 17.5 10 17.5C8.61925 17.5 7.5 16.3807 7.5 15C7.5 13.9115 8.19567 12.9854 9.16667 12.6423V10.8333H7.5C5.65905 10.8333 4.16667 9.34092 4.16667 7.5V7.35774C3.19568 7.01455 2.5 6.08852 2.5 5ZM15 4.16667C14.5398 4.16667 14.1667 4.53977 14.1667 5C14.1667 5.46023 14.5398 5.83333 15 5.83333C15.4602 5.83333 15.8333 5.46023 15.8333 5C15.8333 4.53977 15.4602 4.16667 15 4.16667ZM10 14.1667C9.53975 14.1667 9.16667 14.5398 9.16667 15C9.16667 15.4602 9.53975 15.8333 10 15.8333C10.4602 15.8333 10.8333 15.4602 10.8333 15C10.8333 14.5398 10.4602 14.1667 10 14.1667Z" fill="currentColor"/>
</svg>
