<svg width="20" height="18" viewBox="0 0 20 18" fill="currentColor" xmlns="http://www.w3.org/2000/svg">
<path d="M14.9022 15.0805C13.4845 15.9794 11.8031 16.5 10.0002 16.5C5.50675 16.5 1.76844 13.2668 0.98468 9.00001C1.34858 7.01886 2.34941 5.26059 3.76704 3.94532L1.16136 1.33965L2.33988 0.161133L18.8391 16.6603L17.6606 17.8388L14.9022 15.0805ZM4.94631 5.12459C3.83892 6.1333 3.03148 7.47251 2.68563 9.00001C3.45016 12.3766 6.47048 14.8333 10.0002 14.8333C11.3331 14.8333 12.5933 14.483 13.6869 13.8652L11.9966 12.1749C11.4186 12.5392 10.734 12.75 10.0002 12.75C7.92913 12.75 6.2502 11.071 6.2502 9.00001C6.2502 8.26617 6.46096 7.58159 6.82524 7.00352L4.94631 5.12459ZM10.7616 10.9398L8.06036 8.23867C7.96773 8.47451 7.91686 8.73126 7.91686 9.00001C7.91686 10.1506 8.84965 11.0833 10.0002 11.0833C10.2689 11.0833 10.5257 11.0324 10.7616 10.9398ZM17.339 12.8269L16.1466 11.6346C16.6932 10.8555 17.0961 9.96534 17.3147 9.00001C16.5502 5.62332 13.5299 3.16664 10.0002 3.16664C9.29531 3.16664 8.61073 3.26462 7.96039 3.44832L6.64536 2.1333C7.68437 1.7245 8.81606 1.49997 10.0002 1.49997C14.4936 1.49997 18.232 4.73311 19.0157 9.00001C18.7556 10.4163 18.1698 11.7188 17.339 12.8269ZM9.76906 5.25698C9.84548 5.25233 9.92256 5.24997 10.0002 5.24997C12.0712 5.24997 13.7502 6.92891 13.7502 9.00001C13.7502 9.07759 13.7478 9.15467 13.7432 9.23109L9.76906 5.25698Z" fill="currentColor"/>
</svg>
