<svg width="18" height="17" viewBox="0 0 18 17" fill="none" xmlns="http://www.w3.org/2000/svg">
<path d="M13.1667 3.49999H17.3334V5.16666H15.6667V16C15.6667 16.4602 15.2936 16.8333 14.8334 16.8333H3.16669C2.70645 16.8333 2.33335 16.4602 2.33335 16V5.16666H0.666687V3.49999H4.83335V0.99999C4.83335 0.539757 5.20645 0.166656 5.66669 0.166656H12.3334C12.7936 0.166656 13.1667 0.539757 13.1667 0.99999V3.49999ZM14 5.16666H4.00002V15.1667H14V5.16666ZM6.50002 7.66666H8.16669V12.6667H6.50002V7.66666ZM9.83335 7.66666H11.5V12.6667H9.83335V7.66666ZM6.50002 1.83332V3.49999H11.5V1.83332H6.50002Z" fill="currentColor"/>
</svg>
