<svg width="20" height="20" viewBox="0 0 20 20" fill="currentColor" xmlns="http://www.w3.org/2000/svg">
<path d="M14.1667 5.00008H18.3334V6.66675H16.6667V17.5001C16.6667 17.9603 16.2936 18.3334 15.8334 18.3334H4.16669C3.70645 18.3334 3.33335 17.9603 3.33335 17.5001V6.66675H1.66669V5.00008H5.83335V2.50008C5.83335 2.03985 6.20645 1.66675 6.66669 1.66675H13.3334C13.7936 1.66675 14.1667 2.03985 14.1667 2.50008V5.00008ZM15 6.66675H5.00002V16.6667H15V6.66675ZM7.50002 9.16675H9.16669V14.1667H7.50002V9.16675ZM10.8334 9.16675H12.5V14.1667H10.8334V9.16675ZM7.50002 3.33341V5.00008H12.5V3.33341H7.50002Z" fill="currentColor"/>
</svg>
