<svg width="18" height="18" viewBox="0 0 18 18" fill="currentColor" xmlns="http://www.w3.org/2000/svg">
<path d="M8.99999 17.3334C4.39761 17.3334 0.666656 13.6024 0.666656 9.00008C0.666656 4.39771 4.39761 0.666748 8.99999 0.666748C13.6023 0.666748 17.3333 4.39771 17.3333 9.00008C17.3333 13.6024 13.6023 17.3334 8.99999 17.3334ZM8.99999 15.6667C12.6819 15.6667 15.6667 12.682 15.6667 9.00008C15.6667 5.31818 12.6819 2.33341 8.99999 2.33341C5.31809 2.33341 2.33332 5.31818 2.33332 9.00008C2.33332 12.682 5.31809 15.6667 8.99999 15.6667ZM8.16666 11.5001H9.83332V13.1667H8.16666V11.5001ZM8.16666 4.83342H9.83332V9.83342H8.16666V4.83342Z" fill="currentColor"/>
</svg>
